<?xml version="1.0" encoding="UTF-8"?>
<svg id="_레이어_2" data-name="레이어 2" xmlns="http://www.w3.org/2000/svg" viewBox="0 0 154.2 107.02">
  <defs>
    <style>
      .cls-1 {
        fill: #fff;
      }

      .cls-2 {
        fill: #503cff;
      }
    </style>
  </defs>
  <g id="_레이어_1-2" data-name="레이어 1">
    <g>
      <path id="App_Icon_Placeholder" data-name="App Icon Placeholder" class="cls-2" d="m64.28,0h44.51c14.76,0,22.14,0,29.64,2.51,8.12,3.16,13.74,9.99,15.37,18.66,1.11,7.95-.19,15.32-2.79,30.08l-.79,4.51c-2.6,14.76-3.9,22.14-7.82,30.08-4.69,8.67-12.72,15.51-21.95,18.66-8.39,2.51-15.77,2.51-30.53,2.51h-44.51c-14.76,0-22.14,0-29.64-2.51-8.12-3.16-13.75-9.99-15.37-18.66-1.11-7.94.19-15.32,2.79-30.08l.79-4.51c2.6-14.76,3.9-22.14,7.82-30.08,4.69-8.67,12.72-15.51,21.95-18.66,8.39-2.51,15.76-2.51,30.52-2.51h0"/>
      <path class="cls-1" d="m45.9,53.98l38.1,24.21c2.94,1.87,7.35-.47,7.94-4.2l7.67-48.43c.59-3.73-3.08-6.07-6.61-4.2l-45.77,24.21c-3.53,1.87-4.27,6.54-1.33,8.4Z"/>
    </g>
  </g>
</svg>