<?xml version="1.0" encoding="UTF-8"?><svg id="_레이어_2" xmlns="http://www.w3.org/2000/svg" viewBox="0 0 572.55 145.95"><defs><style>.cls-1{fill:#ff388c;}.cls-2{fill:#1a1a1a;}.cls-3{fill:#503cff;}</style></defs><g id="_레이어_1-2"><path class="cls-2" d="m242.44,9.89c13.78-.24,24.41,4.23,23.88,14.37-.63,11.94-15.17,15.79-15.17,15.79,0,0-2.66-9.13-12.64-8.96-5.7.1-10.2,3.2-10.5,8.93-.15,2.91.88,5.21,4.32,7.22l11.04,6.45c11.82,6.9,14.84,15.04,14.33,24.86-1.23,23.47-20.8,39.34-47.7,39.81-16.15.28-29.43-7.01-28.8-18.93.64-12.2,15.65-17.71,15.65-17.71,0,0,2.85,14.34,16.03,14.11,6.43-.11,11.49-3.79,11.78-9.21.19-3.68-1.94-5.19-4.88-6.98l-9.09-5.54c-12.33-7.52-15.09-16.56-14.61-25.78,1.12-21.39,18.53-37.94,46.38-38.42h0Z"/><path class="cls-2" d="m331.46,90.13c-2.97,13.96.73,19.75.73,19.75,0,0-6.66,6.45-16.43,6.63-9.27.16-13.75-5.26-13.03-16.88-6.8,9.46-15.73,17.38-26.6,17.57-11.73.2-16.47-9.16-12.37-28.45l4.43-20.87c2.72-12.78,3.83-23.19,3.83-23.19,8.42-1.66,19.63-5.69,23.49-5.75,2.99-.05,5.63,2.35,5.63,2.35l-5.55,26.12-5.12,24.1c-.47,2.21-.11,3.45,1.93,3.41,9.72-.17,16.64-27.75,16.64-27.75,2.72-12.78,3.83-23.19,3.83-23.19,8.42-1.66,19.63-5.69,23.49-5.75,2.99-.05,5.63,2.35,5.63,2.35l-5.55,26.12-4.54,21.36-.44,2.08Z"/><path class="cls-2" d="m414.99,66.41c-1.46,27.83-24.98,48.8-44.86,49.15-6.32.11-10.5-1.94-12.91-3.71-6.94,1.78-14.4,4.18-16.76,4.22-2.95.05-5.54-2.41-5.54-2.41l5.41-25.46,12.49-59.26c1.94-9.22,2.79-15.06,3.12-17.6.11-.86.72-1.57,1.56-1.8C365.67,7.35,376.23.06,379.84,0c2.95-.05,5.56,2.35,5.56,2.35l-5.5,26.12-1.44,6.86c-.59,2.8-1.38,5.35-2.2,7.58,4.73-3.17,10.33-5.56,16.49-5.67,12.98-.23,23.25,9.92,22.24,29.17Zm-28.81,5.97c.54-10.24-2.54-14.62-8.83-14.51-1.28.02-2.53.2-3.73.49l-6.19,29.37-2.08,9.78c.63.08,1.31.12,2.04.11,10.38-.18,18.02-10.39,18.8-25.24Z"/><path class="cls-2" d="m491.89,67.23c-1.46,27.83-24.87,47.63-44.65,46.94-3.56-.12-6.43-.9-8.69-1.9-.02,1.36-.12,2.69-.36,3.84l-.47,2.24c-2.02,9.55-3,16.58-3.36,19.47-.11.84-.73,1.53-1.56,1.69-8.11,1.58-18.39,6.57-21.98,6.45-2.94-.1-5.54-2.64-5.54-2.64l16.91-79.91.44-2.06c2.93-13.85-.7-19.85-.7-19.85,0,0,6.55-6.13,16.16-5.79,6.19.22,10.21,2.9,11.92,8.23,5.33-4.06,12.09-7.39,19.75-7.13,12.92.45,23.13,11.16,22.12,30.41Zm-47.39,28.81c10.33.36,17.93-9.47,18.71-24.33.54-10.24-2.52-14.8-8.78-15.02-1.34-.05-2.64.08-3.9.33-.21,1.56-.51,3.22-.88,4.96l-.5,2.36-6.67,31.48c.62.12,1.29.19,2.01.21h0Z"/><path class="cls-2" d="m561.58,86.08l-.48,1.97c-3.22,13.28.19,18.86.19,18.86,0,0-6.57,6.05-15.97,6.05-6.06,0-9.92-2.42-11.47-7.43-5.32,4.04-12.02,7.44-19.51,7.44-12.64,0-22.37-9.84-20.9-28.2,2.13-26.54,25.55-46.17,44.9-46.17,6.16,0,10.17,2.02,12.47,3.75,6.8-1.58,14.12-3.76,16.42-3.76,2.87,0,5.33,2.4,5.33,2.4l-5.91,24.2-5.06,20.88Zm-40.3-5.67c-.93,10.12,1.89,14.5,8.02,14.5,1.31,0,2.59-.17,3.83-.46.27-1.55.62-3.19,1.05-4.92l.58-2.34,5.37-21.63,2.41-9.63c-.61-.09-1.27-.14-1.98-.14-10.1,0-17.94,9.97-19.28,24.64h0Z"/><path id="App_Icon_Placeholder" class="cls-1" d="m82.51,28.85h44.51c14.76,0,22.14,0,29.64,2.51,8.12,3.16,13.74,9.99,15.37,18.66,1.11,7.95-.19,15.32-2.79,30.08l-.79,4.51c-2.6,14.76-3.9,22.14-7.82,30.08-4.69,8.67-12.72,15.51-21.95,18.66-8.39,2.51-15.77,2.51-30.53,2.51h-44.51c-14.76,0-22.14,0-29.64-2.51-8.12-3.16-13.75-9.99-15.37-18.66-1.11-7.94.19-15.32,2.79-30.08l.79-4.51c2.6-14.76,3.9-22.14,7.82-30.08,4.69-8.67,12.72-15.51,21.95-18.66,8.39-2.51,15.76-2.51,30.52-2.51h0"/><path id="App_Icon_Placeholder-2" class="cls-3" d="m64.28,6.76h44.51c14.76,0,22.14,0,29.64,2.51,8.12,3.16,13.74,9.99,15.37,18.66,1.11,7.95-.19,15.32-2.79,30.08l-.79,4.51c-2.6,14.76-3.9,22.14-7.82,30.08-4.69,8.67-12.72,15.51-21.95,18.66-8.39,2.51-15.77,2.51-30.53,2.51h-44.51c-14.76,0-22.14,0-29.64-2.51-8.12-3.16-13.75-9.99-15.37-18.66-1.11-7.94.19-15.32,2.79-30.08l.79-4.51c2.6-14.76,3.9-22.14,7.82-30.08,4.69-8.67,12.72-15.51,21.95-18.66,8.39-2.51,15.76-2.51,30.52-2.51h0"/></g></svg>